<svg xmlns="http://www.w3.org/2000/svg" width="17" height="17" viewBox="0 0 17 17" fill="none">
<path fill-rule="evenodd" clip-rule="evenodd" d="M8.83333 0.875C8.48816 0.875 8.20833 1.15482 8.20833 1.5C8.20833 1.84518 8.48816 2.125 8.83333 2.125C9.62674 2.125 10.4124 2.28127 11.1454 2.58489C11.8784 2.88852 12.5444 3.33354 13.1054 3.89456C13.6665 4.45558 14.1115 5.12161 14.4151 5.85462C14.7187 6.58763 14.875 7.37326 14.875 8.16667C14.875 8.51184 15.1548 8.79167 15.5 8.79167C15.8452 8.79167 16.125 8.51184 16.125 8.16667C16.125 7.20911 15.9364 6.26093 15.57 5.37627C15.2035 4.4916 14.6664 3.68777 13.9893 3.01068C13.3122 2.33359 12.5084 1.79649 11.6237 1.43005C10.7391 1.0636 9.79089 0.875 8.83333 0.875ZM15.5 14.8333V13.4617C15.5 12.7802 15.0851 12.1674 14.4523 11.9143L12.7572 11.2362C11.9524 10.9143 11.0352 11.263 10.6475 12.0383L10.5 12.3333C10.5 12.3333 8.41667 11.9167 6.75 10.25C5.08333 8.58333 4.66667 6.5 4.66667 6.5L4.96168 6.35249C5.73698 5.96484 6.08571 5.04761 5.76379 4.2428L5.08574 2.54768C4.83263 1.91492 4.21979 1.5 3.53828 1.5H2.16667C1.24619 1.5 0.5 2.24619 0.5 3.16667C0.5 10.5305 6.46954 16.5 13.8333 16.5C14.7538 16.5 15.5 15.7538 15.5 14.8333ZM8.20833 4.83333C8.20833 4.48816 8.48816 4.20833 8.83333 4.20833C9.35315 4.20833 9.86788 4.31072 10.3481 4.50964C10.8284 4.70857 11.2647 5.00014 11.6323 5.3677C11.9999 5.73527 12.2914 6.17163 12.4904 6.65188C12.6893 7.13213 12.7917 7.64685 12.7917 8.16667C12.7917 8.51185 12.5118 8.79167 12.1667 8.79167C11.8215 8.79167 11.5417 8.51185 11.5417 8.16667C11.5417 7.811 11.4716 7.45882 11.3355 7.13023C11.1994 6.80164 10.9999 6.50308 10.7484 6.25159C10.4969 6.00009 10.1984 5.8006 9.86977 5.66449C9.54118 5.52839 9.189 5.45833 8.83333 5.45833C8.48816 5.45833 8.20833 5.17851 8.20833 4.83333Z" fill="#F4662A"></path>
</svg>